<mxfile host="Electron" agent="Mozilla/5.0 (Windows NT 10.0; Win64; x64) AppleWebKit/537.36 (KHTML, like Gecko) draw.io/24.7.8 Chrome/128.0.6613.36 Electron/32.0.1 Safari/537.36" version="24.7.8">
  <diagram name="Seite-1" id="_iwhfQApXfRRHc5AV5JG">
    <mxGraphModel dx="2501" dy="836" grid="1" gridSize="10" guides="1" tooltips="1" connect="1" arrows="1" fold="1" page="1" pageScale="1" pageWidth="827" pageHeight="1169" math="0" shadow="0">
      <root>
        <mxCell id="0" />
        <mxCell id="1" parent="0" />
        <mxCell id="I6_56wZajx8HJ1nVJNWv-1" value="Dialogs" style="shape=umlFrame;whiteSpace=wrap;html=1;pointerEvents=0;recursiveResize=0;container=1;collapsible=0;width=160;" parent="1" vertex="1">
          <mxGeometry x="-120" y="560" width="1480" height="360" as="geometry" />
        </mxCell>
        <mxCell id="I6_56wZajx8HJ1nVJNWv-4" style="edgeStyle=orthogonalEdgeStyle;rounded=0;orthogonalLoop=1;jettySize=auto;html=1;exitX=1;exitY=0.5;exitDx=0;exitDy=0;entryX=0;entryY=0.5;entryDx=0;entryDy=0;" parent="I6_56wZajx8HJ1nVJNWv-1" source="I6_56wZajx8HJ1nVJNWv-2" target="I6_56wZajx8HJ1nVJNWv-3" edge="1">
          <mxGeometry relative="1" as="geometry" />
        </mxCell>
        <mxCell id="I6_56wZajx8HJ1nVJNWv-2" value="" style="ellipse;whiteSpace=wrap;html=1;aspect=fixed;fillColor=#000000;" parent="I6_56wZajx8HJ1nVJNWv-1" vertex="1">
          <mxGeometry x="40" y="160" width="40" height="40" as="geometry" />
        </mxCell>
        <mxCell id="I6_56wZajx8HJ1nVJNWv-7" style="edgeStyle=orthogonalEdgeStyle;rounded=1;orthogonalLoop=1;jettySize=auto;html=1;exitX=0.897;exitY=0;exitDx=0;exitDy=0;entryX=0.097;entryY=0;entryDx=0;entryDy=0;entryPerimeter=0;exitPerimeter=0;curved=0;" parent="I6_56wZajx8HJ1nVJNWv-1" source="I6_56wZajx8HJ1nVJNWv-3" target="I6_56wZajx8HJ1nVJNWv-5" edge="1">
          <mxGeometry relative="1" as="geometry" />
        </mxCell>
        <mxCell id="I6_56wZajx8HJ1nVJNWv-38" value="joinServer()" style="edgeLabel;html=1;align=center;verticalAlign=middle;resizable=0;points=[];" parent="I6_56wZajx8HJ1nVJNWv-7" vertex="1" connectable="0">
          <mxGeometry x="-0.0917" y="-1" relative="1" as="geometry">
            <mxPoint x="7" y="-11" as="offset" />
          </mxGeometry>
        </mxCell>
        <mxCell id="I6_56wZajx8HJ1nVJNWv-8" style="edgeStyle=orthogonalEdgeStyle;rounded=1;orthogonalLoop=1;jettySize=auto;html=1;exitX=0.899;exitY=0.999;exitDx=0;exitDy=0;entryX=0.1;entryY=0.999;entryDx=0;entryDy=0;exitPerimeter=0;entryPerimeter=0;curved=0;" parent="I6_56wZajx8HJ1nVJNWv-1" source="I6_56wZajx8HJ1nVJNWv-3" target="I6_56wZajx8HJ1nVJNWv-5" edge="1">
          <mxGeometry relative="1" as="geometry" />
        </mxCell>
        <mxCell id="I6_56wZajx8HJ1nVJNWv-39" value="hostServer()" style="edgeLabel;html=1;align=center;verticalAlign=middle;resizable=0;points=[];" parent="I6_56wZajx8HJ1nVJNWv-8" vertex="1" connectable="0">
          <mxGeometry x="-0.2906" relative="1" as="geometry">
            <mxPoint x="21" y="-10" as="offset" />
          </mxGeometry>
        </mxCell>
        <mxCell id="I6_56wZajx8HJ1nVJNWv-36" style="edgeStyle=orthogonalEdgeStyle;rounded=1;orthogonalLoop=1;jettySize=auto;html=1;exitX=0.25;exitY=1;exitDx=0;exitDy=0;entryX=0.5;entryY=1;entryDx=0;entryDy=0;curved=0;" parent="I6_56wZajx8HJ1nVJNWv-1" source="I6_56wZajx8HJ1nVJNWv-3" target="I6_56wZajx8HJ1nVJNWv-24" edge="1">
          <mxGeometry relative="1" as="geometry">
            <Array as="points">
              <mxPoint x="190" y="320" />
              <mxPoint x="1340" y="320" />
              <mxPoint x="1340" y="200" />
            </Array>
          </mxGeometry>
        </mxCell>
        <mxCell id="I6_56wZajx8HJ1nVJNWv-56" value="leave()" style="edgeLabel;html=1;align=center;verticalAlign=middle;resizable=0;points=[];" parent="I6_56wZajx8HJ1nVJNWv-36" vertex="1" connectable="0">
          <mxGeometry x="0.0391" y="-1" relative="1" as="geometry">
            <mxPoint x="-13" y="-11" as="offset" />
          </mxGeometry>
        </mxCell>
        <mxCell id="I6_56wZajx8HJ1nVJNWv-3" value="StartDialog" style="rounded=1;whiteSpace=wrap;html=1;" parent="I6_56wZajx8HJ1nVJNWv-1" vertex="1">
          <mxGeometry x="160" y="160" width="120" height="40" as="geometry" />
        </mxCell>
        <mxCell id="I6_56wZajx8HJ1nVJNWv-9" style="edgeStyle=orthogonalEdgeStyle;rounded=0;orthogonalLoop=1;jettySize=auto;html=1;exitX=0;exitY=0.5;exitDx=0;exitDy=0;entryX=1;entryY=0.5;entryDx=0;entryDy=0;" parent="I6_56wZajx8HJ1nVJNWv-1" source="I6_56wZajx8HJ1nVJNWv-5" target="I6_56wZajx8HJ1nVJNWv-3" edge="1">
          <mxGeometry relative="1" as="geometry" />
        </mxCell>
        <mxCell id="I6_56wZajx8HJ1nVJNWv-37" value="back()" style="edgeLabel;html=1;align=center;verticalAlign=middle;resizable=0;points=[];" parent="I6_56wZajx8HJ1nVJNWv-9" vertex="1" connectable="0">
          <mxGeometry x="-0.2" relative="1" as="geometry">
            <mxPoint x="-8" y="-10" as="offset" />
          </mxGeometry>
        </mxCell>
        <mxCell id="I6_56wZajx8HJ1nVJNWv-12" style="edgeStyle=orthogonalEdgeStyle;rounded=0;orthogonalLoop=1;jettySize=auto;html=1;exitX=1;exitY=0.5;exitDx=0;exitDy=0;entryX=0;entryY=0.5;entryDx=0;entryDy=0;" parent="I6_56wZajx8HJ1nVJNWv-1" source="I6_56wZajx8HJ1nVJNWv-5" target="I6_56wZajx8HJ1nVJNWv-11" edge="1">
          <mxGeometry relative="1" as="geometry" />
        </mxCell>
        <mxCell id="I6_56wZajx8HJ1nVJNWv-5" value="NetworkDialog" style="rounded=1;whiteSpace=wrap;html=1;" parent="I6_56wZajx8HJ1nVJNWv-1" vertex="1">
          <mxGeometry x="360" y="160" width="120" height="40" as="geometry" />
        </mxCell>
        <mxCell id="I6_56wZajx8HJ1nVJNWv-10" style="edgeStyle=orthogonalEdgeStyle;rounded=1;orthogonalLoop=1;jettySize=auto;html=1;exitX=0.25;exitY=1;exitDx=0;exitDy=0;entryX=0.75;entryY=1;entryDx=0;entryDy=0;curved=0;" parent="I6_56wZajx8HJ1nVJNWv-1" source="I6_56wZajx8HJ1nVJNWv-5" target="I6_56wZajx8HJ1nVJNWv-5" edge="1">
          <mxGeometry relative="1" as="geometry" />
        </mxCell>
        <mxCell id="I6_56wZajx8HJ1nVJNWv-40" value="setIP(IP)&lt;br&gt;setPort(Port)" style="edgeLabel;html=1;align=center;verticalAlign=middle;resizable=0;points=[];" parent="I6_56wZajx8HJ1nVJNWv-10" vertex="1" connectable="0">
          <mxGeometry x="0.06" relative="1" as="geometry">
            <mxPoint y="20" as="offset" />
          </mxGeometry>
        </mxCell>
        <mxCell id="I6_56wZajx8HJ1nVJNWv-14" style="edgeStyle=orthogonalEdgeStyle;rounded=0;orthogonalLoop=1;jettySize=auto;html=1;exitX=1;exitY=0.5;exitDx=0;exitDy=0;entryX=0;entryY=0.5;entryDx=0;entryDy=0;" parent="I6_56wZajx8HJ1nVJNWv-1" source="I6_56wZajx8HJ1nVJNWv-11" target="I6_56wZajx8HJ1nVJNWv-13" edge="1">
          <mxGeometry relative="1" as="geometry" />
        </mxCell>
        <mxCell id="I6_56wZajx8HJ1nVJNWv-41" value="[validArguments(IP,Port)]" style="edgeLabel;html=1;align=center;verticalAlign=middle;resizable=0;points=[];" parent="I6_56wZajx8HJ1nVJNWv-14" vertex="1" connectable="0">
          <mxGeometry x="-0.2098" y="1" relative="1" as="geometry">
            <mxPoint x="12" y="11" as="offset" />
          </mxGeometry>
        </mxCell>
        <mxCell id="I6_56wZajx8HJ1nVJNWv-15" style="edgeStyle=orthogonalEdgeStyle;rounded=1;orthogonalLoop=1;jettySize=auto;html=1;exitX=0.5;exitY=0;exitDx=0;exitDy=0;entryX=0.75;entryY=0;entryDx=0;entryDy=0;curved=0;" parent="I6_56wZajx8HJ1nVJNWv-1" source="I6_56wZajx8HJ1nVJNWv-11" target="I6_56wZajx8HJ1nVJNWv-5" edge="1">
          <mxGeometry relative="1" as="geometry" />
        </mxCell>
        <mxCell id="I6_56wZajx8HJ1nVJNWv-42" value="[else]" style="edgeLabel;html=1;align=center;verticalAlign=middle;resizable=0;points=[];" parent="I6_56wZajx8HJ1nVJNWv-15" vertex="1" connectable="0">
          <mxGeometry x="-0.4781" y="-1" relative="1" as="geometry">
            <mxPoint x="-8" y="-14" as="offset" />
          </mxGeometry>
        </mxCell>
        <mxCell id="I6_56wZajx8HJ1nVJNWv-11" value="" style="rhombus;whiteSpace=wrap;html=1;" parent="I6_56wZajx8HJ1nVJNWv-1" vertex="1">
          <mxGeometry x="520" y="165" width="40" height="30" as="geometry" />
        </mxCell>
        <mxCell id="I6_56wZajx8HJ1nVJNWv-17" style="edgeStyle=orthogonalEdgeStyle;rounded=0;orthogonalLoop=1;jettySize=auto;html=1;exitX=1;exitY=0.5;exitDx=0;exitDy=0;entryX=0;entryY=0.5;entryDx=0;entryDy=0;" parent="I6_56wZajx8HJ1nVJNWv-1" source="I6_56wZajx8HJ1nVJNWv-13" target="I6_56wZajx8HJ1nVJNWv-16" edge="1">
          <mxGeometry relative="1" as="geometry" />
        </mxCell>
        <mxCell id="I6_56wZajx8HJ1nVJNWv-43" value="[isHost()] / startServer()" style="edgeLabel;html=1;align=center;verticalAlign=middle;resizable=0;points=[];" parent="I6_56wZajx8HJ1nVJNWv-17" vertex="1" connectable="0">
          <mxGeometry x="0.273" y="-2" relative="1" as="geometry">
            <mxPoint x="-17" y="12" as="offset" />
          </mxGeometry>
        </mxCell>
        <mxCell id="I6_56wZajx8HJ1nVJNWv-18" style="edgeStyle=orthogonalEdgeStyle;rounded=1;orthogonalLoop=1;jettySize=auto;html=1;exitX=0.5;exitY=0;exitDx=0;exitDy=0;entryX=0.1;entryY=0.003;entryDx=0;entryDy=0;entryPerimeter=0;curved=0;" parent="I6_56wZajx8HJ1nVJNWv-1" source="I6_56wZajx8HJ1nVJNWv-13" target="I6_56wZajx8HJ1nVJNWv-16" edge="1">
          <mxGeometry relative="1" as="geometry" />
        </mxCell>
        <mxCell id="I6_56wZajx8HJ1nVJNWv-44" value="[else] / joinServer()" style="edgeLabel;html=1;align=center;verticalAlign=middle;resizable=0;points=[];" parent="I6_56wZajx8HJ1nVJNWv-18" vertex="1" connectable="0">
          <mxGeometry x="0.0143" y="-2" relative="1" as="geometry">
            <mxPoint y="-12" as="offset" />
          </mxGeometry>
        </mxCell>
        <mxCell id="I6_56wZajx8HJ1nVJNWv-13" value="" style="rhombus;whiteSpace=wrap;html=1;" parent="I6_56wZajx8HJ1nVJNWv-1" vertex="1">
          <mxGeometry x="680" y="165" width="40" height="30" as="geometry" />
        </mxCell>
        <mxCell id="I6_56wZajx8HJ1nVJNWv-22" style="edgeStyle=orthogonalEdgeStyle;rounded=0;orthogonalLoop=1;jettySize=auto;html=1;exitX=1;exitY=0.5;exitDx=0;exitDy=0;entryX=0;entryY=0.5;entryDx=0;entryDy=0;" parent="I6_56wZajx8HJ1nVJNWv-1" source="I6_56wZajx8HJ1nVJNWv-16" target="I6_56wZajx8HJ1nVJNWv-19" edge="1">
          <mxGeometry relative="1" as="geometry" />
        </mxCell>
        <mxCell id="I6_56wZajx8HJ1nVJNWv-47" value="pushBtn()" style="edgeLabel;html=1;align=center;verticalAlign=middle;resizable=0;points=[];" parent="I6_56wZajx8HJ1nVJNWv-22" vertex="1" connectable="0">
          <mxGeometry x="0.0302" y="-2" relative="1" as="geometry">
            <mxPoint x="-1" y="-12" as="offset" />
          </mxGeometry>
        </mxCell>
        <mxCell id="I6_56wZajx8HJ1nVJNWv-33" style="edgeStyle=orthogonalEdgeStyle;rounded=1;orthogonalLoop=1;jettySize=auto;html=1;exitX=0.75;exitY=1;exitDx=0;exitDy=0;entryX=0.5;entryY=1;entryDx=0;entryDy=0;curved=0;" parent="I6_56wZajx8HJ1nVJNWv-1" source="I6_56wZajx8HJ1nVJNWv-16" target="I6_56wZajx8HJ1nVJNWv-24" edge="1">
          <mxGeometry relative="1" as="geometry">
            <Array as="points">
              <mxPoint x="930" y="240" />
              <mxPoint x="1340" y="240" />
              <mxPoint x="1340" y="200" />
            </Array>
          </mxGeometry>
        </mxCell>
        <mxCell id="I6_56wZajx8HJ1nVJNWv-35" style="edgeStyle=orthogonalEdgeStyle;rounded=1;orthogonalLoop=1;jettySize=auto;html=1;exitX=0.25;exitY=1;exitDx=0;exitDy=0;entryX=0.5;entryY=1;entryDx=0;entryDy=0;curved=0;" parent="I6_56wZajx8HJ1nVJNWv-1" source="I6_56wZajx8HJ1nVJNWv-16" target="I6_56wZajx8HJ1nVJNWv-3" edge="1">
          <mxGeometry relative="1" as="geometry">
            <Array as="points">
              <mxPoint x="870" y="280" />
              <mxPoint x="220" y="280" />
            </Array>
          </mxGeometry>
        </mxCell>
        <mxCell id="I6_56wZajx8HJ1nVJNWv-45" value="leave()" style="edgeLabel;html=1;align=center;verticalAlign=middle;resizable=0;points=[];" parent="I6_56wZajx8HJ1nVJNWv-35" vertex="1" connectable="0">
          <mxGeometry x="-0.5678" y="1" relative="1" as="geometry">
            <mxPoint x="5" y="-11" as="offset" />
          </mxGeometry>
        </mxCell>
        <mxCell id="I6_56wZajx8HJ1nVJNWv-16" value="Lobby" style="rounded=1;whiteSpace=wrap;html=1;" parent="I6_56wZajx8HJ1nVJNWv-1" vertex="1">
          <mxGeometry x="840" y="160" width="120" height="40" as="geometry" />
        </mxCell>
        <mxCell id="I6_56wZajx8HJ1nVJNWv-23" style="edgeStyle=orthogonalEdgeStyle;rounded=0;orthogonalLoop=1;jettySize=auto;html=1;exitX=1;exitY=0.5;exitDx=0;exitDy=0;entryX=0;entryY=0.5;entryDx=0;entryDy=0;" parent="I6_56wZajx8HJ1nVJNWv-1" source="I6_56wZajx8HJ1nVJNWv-19" target="I6_56wZajx8HJ1nVJNWv-21" edge="1">
          <mxGeometry relative="1" as="geometry" />
        </mxCell>
        <mxCell id="I6_56wZajx8HJ1nVJNWv-48" value="[isHost()]" style="edgeLabel;html=1;align=center;verticalAlign=middle;resizable=0;points=[];" parent="I6_56wZajx8HJ1nVJNWv-23" vertex="1" connectable="0">
          <mxGeometry x="-0.1595" y="1" relative="1" as="geometry">
            <mxPoint y="-9" as="offset" />
          </mxGeometry>
        </mxCell>
        <mxCell id="I6_56wZajx8HJ1nVJNWv-27" style="edgeStyle=orthogonalEdgeStyle;rounded=0;orthogonalLoop=1;jettySize=auto;html=1;exitX=0.5;exitY=0;exitDx=0;exitDy=0;entryX=0.5;entryY=1;entryDx=0;entryDy=0;" parent="I6_56wZajx8HJ1nVJNWv-1" source="I6_56wZajx8HJ1nVJNWv-19" target="I6_56wZajx8HJ1nVJNWv-20" edge="1">
          <mxGeometry relative="1" as="geometry" />
        </mxCell>
        <mxCell id="I6_56wZajx8HJ1nVJNWv-49" value="[else]" style="edgeLabel;html=1;align=center;verticalAlign=middle;resizable=0;points=[];" parent="I6_56wZajx8HJ1nVJNWv-27" vertex="1" connectable="0">
          <mxGeometry x="-0.1975" y="-3" relative="1" as="geometry">
            <mxPoint x="17" y="-3" as="offset" />
          </mxGeometry>
        </mxCell>
        <mxCell id="I6_56wZajx8HJ1nVJNWv-19" value="" style="rhombus;whiteSpace=wrap;html=1;" parent="I6_56wZajx8HJ1nVJNWv-1" vertex="1">
          <mxGeometry x="1040" y="165" width="40" height="30" as="geometry" />
        </mxCell>
        <mxCell id="I6_56wZajx8HJ1nVJNWv-28" style="edgeStyle=orthogonalEdgeStyle;rounded=1;orthogonalLoop=1;jettySize=auto;html=1;exitX=0.5;exitY=0;exitDx=0;exitDy=0;entryX=0.5;entryY=0;entryDx=0;entryDy=0;curved=0;" parent="I6_56wZajx8HJ1nVJNWv-1" source="I6_56wZajx8HJ1nVJNWv-20" target="I6_56wZajx8HJ1nVJNWv-16" edge="1">
          <mxGeometry relative="1" as="geometry" />
        </mxCell>
        <mxCell id="I6_56wZajx8HJ1nVJNWv-52" value="[else] / setReady()" style="edgeLabel;html=1;align=center;verticalAlign=middle;resizable=0;points=[];" parent="I6_56wZajx8HJ1nVJNWv-28" vertex="1" connectable="0">
          <mxGeometry x="-0.4371" y="-2" relative="1" as="geometry">
            <mxPoint x="-1" y="-8" as="offset" />
          </mxGeometry>
        </mxCell>
        <mxCell id="I6_56wZajx8HJ1nVJNWv-29" style="edgeStyle=orthogonalEdgeStyle;rounded=1;orthogonalLoop=1;jettySize=auto;html=1;exitX=0;exitY=0.5;exitDx=0;exitDy=0;entryX=0.898;entryY=0.003;entryDx=0;entryDy=0;entryPerimeter=0;curved=0;" parent="I6_56wZajx8HJ1nVJNWv-1" source="I6_56wZajx8HJ1nVJNWv-20" target="I6_56wZajx8HJ1nVJNWv-16" edge="1">
          <mxGeometry relative="1" as="geometry" />
        </mxCell>
        <mxCell id="I6_56wZajx8HJ1nVJNWv-53" value="[isReady()] / setUnready()" style="edgeLabel;html=1;align=center;verticalAlign=middle;resizable=0;points=[];" parent="I6_56wZajx8HJ1nVJNWv-29" vertex="1" connectable="0">
          <mxGeometry x="-0.419" y="3" relative="1" as="geometry">
            <mxPoint x="-24" y="-18" as="offset" />
          </mxGeometry>
        </mxCell>
        <mxCell id="I6_56wZajx8HJ1nVJNWv-20" value="" style="rhombus;whiteSpace=wrap;html=1;" parent="I6_56wZajx8HJ1nVJNWv-1" vertex="1">
          <mxGeometry x="1040" y="80" width="40" height="30" as="geometry" />
        </mxCell>
        <mxCell id="I6_56wZajx8HJ1nVJNWv-26" style="edgeStyle=orthogonalEdgeStyle;rounded=0;orthogonalLoop=1;jettySize=auto;html=1;exitX=1;exitY=0.5;exitDx=0;exitDy=0;entryX=0;entryY=0.5;entryDx=0;entryDy=0;" parent="I6_56wZajx8HJ1nVJNWv-1" source="I6_56wZajx8HJ1nVJNWv-21" target="I6_56wZajx8HJ1nVJNWv-24" edge="1">
          <mxGeometry relative="1" as="geometry" />
        </mxCell>
        <mxCell id="I6_56wZajx8HJ1nVJNWv-31" style="edgeStyle=orthogonalEdgeStyle;rounded=1;orthogonalLoop=1;jettySize=auto;html=1;exitX=0.5;exitY=1;exitDx=0;exitDy=0;entryX=0.9;entryY=0.996;entryDx=0;entryDy=0;entryPerimeter=0;curved=0;" parent="I6_56wZajx8HJ1nVJNWv-1" source="I6_56wZajx8HJ1nVJNWv-21" target="I6_56wZajx8HJ1nVJNWv-16" edge="1">
          <mxGeometry relative="1" as="geometry" />
        </mxCell>
        <mxCell id="I6_56wZajx8HJ1nVJNWv-50" value="[else]" style="edgeLabel;html=1;align=center;verticalAlign=middle;resizable=0;points=[];" parent="I6_56wZajx8HJ1nVJNWv-31" vertex="1" connectable="0">
          <mxGeometry x="-0.7084" y="1" relative="1" as="geometry">
            <mxPoint x="-14" y="-11" as="offset" />
          </mxGeometry>
        </mxCell>
        <mxCell id="I6_56wZajx8HJ1nVJNWv-21" value="" style="rhombus;whiteSpace=wrap;html=1;" parent="I6_56wZajx8HJ1nVJNWv-1" vertex="1">
          <mxGeometry x="1160" y="165" width="40" height="30" as="geometry" />
        </mxCell>
        <mxCell id="I6_56wZajx8HJ1nVJNWv-24" value="" style="ellipse;whiteSpace=wrap;html=1;aspect=fixed;" parent="I6_56wZajx8HJ1nVJNWv-1" vertex="1">
          <mxGeometry x="1321" y="160" width="40" height="40" as="geometry" />
        </mxCell>
        <mxCell id="I6_56wZajx8HJ1nVJNWv-25" value="" style="ellipse;whiteSpace=wrap;html=1;aspect=fixed;fillColor=#000000;" parent="I6_56wZajx8HJ1nVJNWv-1" vertex="1">
          <mxGeometry x="1327.4099999999999" y="166.40999999999997" width="27.18" height="27.18" as="geometry" />
        </mxCell>
        <mxCell id="I6_56wZajx8HJ1nVJNWv-34" style="edgeStyle=orthogonalEdgeStyle;rounded=1;orthogonalLoop=1;jettySize=auto;html=1;exitX=0.325;exitY=1.005;exitDx=0;exitDy=0;entryX=0.665;entryY=0.997;entryDx=0;entryDy=0;entryPerimeter=0;exitPerimeter=0;curved=0;" parent="I6_56wZajx8HJ1nVJNWv-1" source="I6_56wZajx8HJ1nVJNWv-16" target="I6_56wZajx8HJ1nVJNWv-16" edge="1">
          <mxGeometry relative="1" as="geometry">
            <Array as="points">
              <mxPoint x="879" y="240" />
              <mxPoint x="920" y="240" />
            </Array>
          </mxGeometry>
        </mxCell>
        <mxCell id="I6_56wZajx8HJ1nVJNWv-46" value="selectTSK(TSK)&lt;br&gt;deselectTSK(TSK)" style="edgeLabel;html=1;align=center;verticalAlign=middle;resizable=0;points=[];" parent="I6_56wZajx8HJ1nVJNWv-34" vertex="1" connectable="0">
          <mxGeometry x="-0.0643" y="1" relative="1" as="geometry">
            <mxPoint x="24" y="21" as="offset" />
          </mxGeometry>
        </mxCell>
        <mxCell id="XmdIHIfSE8x88u-DscWK-1" value="[allReady()]/startGame()" style="text;html=1;align=center;verticalAlign=middle;resizable=0;points=[];autosize=1;strokeColor=none;fillColor=none;" vertex="1" parent="I6_56wZajx8HJ1nVJNWv-1">
          <mxGeometry x="1190" y="140" width="150" height="30" as="geometry" />
        </mxCell>
        <mxCell id="XmdIHIfSE8x88u-DscWK-2" value="[gameHasStarted()]" style="text;html=1;align=center;verticalAlign=middle;resizable=0;points=[];autosize=1;strokeColor=none;fillColor=none;" vertex="1" parent="I6_56wZajx8HJ1nVJNWv-1">
          <mxGeometry x="980" y="240" width="130" height="30" as="geometry" />
        </mxCell>
      </root>
    </mxGraphModel>
  </diagram>
</mxfile>
